# xmcd
#
# Track frame offsets:
#	150
#	27762
#	45146
#	63183
#	78333
#	100489
#	121805
#	136780
#	158669
#	190017
#	208530
#	231450
#	251127
#
# Disc length: 3569 seconds
#
# Revision: 1
# Processed by: cddbd v1.5.2PL0 Copyright (c) Steve Scherf et al.
# Submitted via: audiograbber 1.83.01
#
DISCID=9f0def0d
DTITLE=Benjamin Dehart - Bittersweet Cowboy Reflections
DYEAR=2009
DGENRE=Cowboy Songs
TTITLE0=7000 Feet and 16 hands Closer To Heaven
TTITLE1=Wind River Rose
TTITLE2=Ranch Rodeo Sweetheart
TTITLE3=Sold My Saddle Blues
TTITLE4=Cow Hunter Dreams
TTITLE5=Incident at Ocean Pond aka Olustee
TTITLE6=Keeping Old Memories Alive
TTITLE7=Streets of Laredo
TTITLE8=South Coast
TTITLE9=Little Joe The Wrangler
TTITLE10=River Runs Wild
TTITLE11=Hats and Boots
TTITLE12=Eagle John
EXTD=Harmonica by Stan Geberer
EXTT0=
EXTT1=
EXTT2=
EXTT3=
EXTT4=
EXTT5=
EXTT6=
EXTT7=
EXTT8=
EXTT9=
EXTT10=
EXTT11=
EXTT12=
PLAYORDER=
